<svg width="94" height="94" fill="none" xmlns="http://www.w3.org/2000/svg"><g filter="url(#filter0_d_1_30)"><path fill="#69B9FF" d="M0 0h94v94H0z"/><path fill-rule="evenodd" clip-rule="evenodd" d="M66 25.607V18.4c0-5.327-4.073-9.4-9.4-9.4H37.8c-5.327 0-9.4 4.073-9.4 9.4v7.207A28.11 28.11 0 0019 46.6c0 8.46 3.76 15.98 9.4 20.993V74.8c0 5.327 4.073 9.4 9.4 9.4h18.8c5.327 0 9.4-4.073 9.4-9.4v-7.207A28.11 28.11 0 0075.4 46.6c0-8.46-3.76-15.98-9.4-20.993zM34.667 18.4c0-1.88 1.253-3.133 3.133-3.133h18.8c1.88 0 3.133 1.253 3.133 3.133v2.82c-3.76-1.88-8.146-2.82-12.533-2.82-4.387 0-8.773.94-12.533 2.82V18.4zm25.066 56.4c0 1.88-1.253 3.133-3.133 3.133H37.8c-1.88 0-3.133-1.253-3.133-3.133v-2.82c3.76 1.88 8.146 2.82 12.533 2.82 4.387 0 8.773-.94 12.533-2.82v2.82zM47.2 68.533c-12.22 0-21.933-9.713-21.933-21.933S34.98 24.667 47.2 24.667 69.133 34.38 69.133 46.6 59.42 68.533 47.2 68.533zm3.133-23.186v-11.28c0-1.88-1.253-3.134-3.133-3.134-1.88 0-3.133 1.254-3.133 3.134V46.6c0 .94.313 1.567.94 2.193l6.266 6.267c.627.627 1.567.94 2.194.94.626 0 1.566-.313 2.193-.94 1.253-1.253 1.253-3.133 0-4.387l-5.327-5.326z" fill="#fff"/><path stroke="#fff" stroke-width="10" d="M5 5h84v84H5z"/></g><defs><filter id="filter0_d_1_30" x="0" y="0" width="94" height="94" filterUnits="userSpaceOnUse" color-interpolation-filters="sRGB"><feFlood flood-opacity="0" result="BackgroundImageFix"/><feColorMatrix in="SourceAlpha" values="0 0 0 0 0 0 0 0 0 0 0 0 0 0 0 0 0 0 127 0" result="hardAlpha"/><feOffset/><feColorMatrix values="0 0 0 0 0.180392 0 0 0 0 0.615686 0 0 0 0 1 0 0 0 1 0"/><feBlend in2="BackgroundImageFix" result="effect1_dropShadow_1_30"/><feBlend in="SourceGraphic" in2="effect1_dropShadow_1_30" result="shape"/></filter></defs></svg>