<svg width="94" height="94" fill="none" xmlns="http://www.w3.org/2000/svg"><g filter="url(#filter0_d_1_40)"><path fill="#69B9FF" d="M0 0h94v94H0z"/><path fill-rule="evenodd" clip-rule="evenodd" d="M40.733 15.667c-1.88 0-3.133 1.253-3.133 3.133v14.413l-19.74-19.74c-1.253-1.253-3.133-1.253-4.387 0-1.253 1.254-1.253 3.134 0 4.387l19.74 19.74H18.8c-1.88 0-3.133 1.253-3.133 3.133 0 1.88 1.253 3.134 3.133 3.134h21.933c1.88 0 3.134-1.567 3.134-3.134V18.8c0-1.88-1.567-3.133-3.134-3.133zM80.527 76.14L60.787 56.4H75.2c1.88 0 3.133-1.253 3.133-3.133 0-1.88-1.253-3.134-3.133-3.134H53.267c-1.88 0-3.134 1.567-3.134 3.134V75.2c0 1.88 1.254 3.133 3.134 3.133S56.4 77.08 56.4 75.2V60.787l19.74 19.74c1.253 1.253 3.133 1.253 4.387 0 1.253-1.254 1.253-3.134 0-4.387z" fill="#fff"/><path stroke="#fff" stroke-width="10" d="M5 5h84v84H5z"/></g><defs><filter id="filter0_d_1_40" x="0" y="0" width="94" height="94" filterUnits="userSpaceOnUse" color-interpolation-filters="sRGB"><feFlood flood-opacity="0" result="BackgroundImageFix"/><feColorMatrix in="SourceAlpha" values="0 0 0 0 0 0 0 0 0 0 0 0 0 0 0 0 0 0 127 0" result="hardAlpha"/><feOffset/><feColorMatrix values="0 0 0 0 0.180392 0 0 0 0 0.615686 0 0 0 0 1 0 0 0 1 0"/><feBlend in2="BackgroundImageFix" result="effect1_dropShadow_1_40"/><feBlend in="SourceGraphic" in2="effect1_dropShadow_1_40" result="shape"/></filter></defs></svg>